<?xml version="1.0" encoding="utf-8"?>
<!-- Generator: Adobe Illustrator 16.0.0, SVG Export Plug-In . SVG Version: 6.00 Build 0)  -->
<!DOCTYPE svg PUBLIC "-//W3C//DTD SVG 1.1//EN" "http://www.w3.org/Graphics/SVG/1.1/DTD/svg11.dtd">
<svg version="1.1" id="Layer_1" xmlns="http://www.w3.org/2000/svg" xmlns:xlink="http://www.w3.org/1999/xlink" x="0px" y="0px"
	 width="246.672px" height="81.635px" viewBox="0 0 246.672 81.635" enable-background="new 0 0 246.672 81.635"
	 xml:space="preserve">
<path fill="#FFFFFF" d="M61.528,5.167c-1.062-2.198-2.916-3.851-5.216-4.648c-2.303-0.808-4.782-0.669-6.981,0.389
	c-2.202,1.061-3.859,2.916-4.664,5.223L31.22,44.681L17.772,6.132c-0.805-2.307-2.461-4.162-4.663-5.223
	c-2.199-1.058-4.679-1.197-6.977-0.391c-2.305,0.799-4.159,2.452-5.22,4.65c-1.063,2.2-1.201,4.683-0.394,6.987l21.9,62.792
	c1.315,3.766,4.859,6.127,8.639,6.127c0.054,0,0.109-0.006,0.162-0.007c0.055,0.001,0.11,0.007,0.163,0.007
	c3.78,0,7.325-2.362,8.64-6.128L61.92,12.158C62.729,9.851,62.59,7.368,61.528,5.167"/>
<path fill="none" d="M100.04,2.03c-3.935-1.381-8.233,0.702-9.604,4.629l-14.958,42.88L60.519,6.659
	c-1.371-3.927-5.669-6.01-9.604-4.629c-3.93,1.363-6.008,5.664-4.627,9.598L68.186,74.42c1.092,3.124,4.032,5.066,7.167,5.048
	c0.041,0,0.083,0,0.125,0c0.041,0,0.083,0,0.125,0c3.134,0.019,6.074-1.924,7.166-5.048l21.899-62.792
	C106.047,7.694,103.969,3.393,100.04,2.03"/>
<path fill="#FFFFFF" d="M75.44,81.069l-0.08-0.002c-3.912,0.032-7.398-2.436-8.685-6.12l-21.9-62.792
	c-0.808-2.305-0.668-4.787,0.394-6.987c1.061-2.199,2.915-3.851,5.221-4.651c2.298-0.805,4.777-0.667,6.976,0.392
	c2.201,1.062,3.858,2.916,4.663,5.223L75.477,44.68L88.924,6.132c0.806-2.307,2.462-4.161,4.664-5.223
	c2.197-1.058,4.675-1.197,6.977-0.392c2.304,0.801,4.159,2.453,5.219,4.651c1.063,2.2,1.202,4.682,0.393,6.99L84.279,74.946
	c-1.287,3.684-4.774,6.167-8.68,6.121L75.44,81.069z M75.379,77.867l0.094,0.002l0.085-0.002h0.053
	c2.535,0.017,4.81-1.582,5.646-3.977l21.898-62.79c0.528-1.502,0.437-3.113-0.253-4.543c-0.688-1.426-1.891-2.498-3.387-3.016
	L99.51,3.54c-1.495-0.525-3.106-0.435-4.533,0.253c-1.431,0.689-2.507,1.894-3.031,3.393L75.477,54.397L59.007,7.186
	c-0.523-1.499-1.599-2.704-3.03-3.393c-1.428-0.688-3.038-0.778-4.534-0.253c-1.5,0.52-2.703,1.592-3.392,3.018
	c-0.69,1.43-0.779,3.041-0.254,4.54l21.899,62.793c0.836,2.394,3.106,4.001,5.646,3.976H75.379z"/>
<path fill="#FFFFFF" d="M139.121,5.167c-1.062-2.198-2.915-3.851-5.216-4.648c-2.303-0.808-4.782-0.669-6.981,0.389
	c-2.201,1.061-3.858,2.916-4.662,5.223l-21.905,62.79c-0.806,2.299-0.669,4.774,0.389,6.974c1.06,2.202,2.914,3.859,5.222,4.666
	c0.995,0.348,2.009,0.512,3.008,0.512c3.781,0,7.325-2.362,8.64-6.128l21.898-62.788C140.322,9.851,140.184,7.368,139.121,5.167"/>
<path fill="#FFFFFF" d="M112.808,20.512l-6.98-15.184c-1.021-2.222-2.847-3.912-5.141-4.758c-2.288-0.845-4.767-0.746-6.972,0.272
	c-2.217,1.012-3.906,2.828-4.757,5.112c-0.853,2.292-0.761,4.78,0.258,7.004l6.975,15.191c1.54,3.348,4.86,5.325,8.323,5.325
	c1.275,0,2.571-0.269,3.804-0.835C112.892,30.534,114.907,25.096,112.808,20.512"/>
<path fill="#FFFFFF" d="M154.4,54.647c0.695,0,1.042,0.348,1.042,1.042c0,0.771-0.347,1.157-1.042,1.157h-10.42v1.39h9.146
	c0.617,0,0.927,0.308,0.927,0.927c0,0.694-0.31,1.042-0.927,1.042h-9.146v1.62h11.462c0.695,0,1.042,0.347,1.042,1.042
	c0,0.772-0.347,1.158-1.042,1.158h-25.355c-0.694,0-1.042-0.386-1.042-1.158c0-0.695,0.348-1.042,1.042-1.042h11.462v-1.62h-9.378
	c-0.616,0-0.926-0.348-0.926-1.042c0-0.619,0.31-0.927,0.926-0.927h9.378v-1.39h-10.534c-0.696,0-1.042-0.387-1.042-1.157
	c0-0.694,0.346-1.042,1.042-1.042h10.534v-0.781c0-0.791,0.386-1.188,1.158-1.188c0.85,0,1.273,0.396,1.273,1.188v0.781H154.4z
	 M134.486,65.53h16.788c1.621,0,2.432,0.772,2.432,2.315v9.291c0,1.91-1.157,2.865-3.474,2.865c-1.158,0-2.547-0.145-4.168-0.434
	c-0.54-0.232-0.811-0.579-0.811-1.042c0-0.926,0.309-1.39,0.928-1.39c0.25,0,0.549,0.028,0.896,0.087
	c1.255,0.231,2.23,0.348,2.924,0.348c0.85,0,1.273-0.463,1.273-1.39V75.14h-16.903v3.937c0,0.771-0.425,1.158-1.272,1.158
	c-0.773,0-1.159-0.387-1.159-1.158v-11.23C131.939,66.303,132.788,65.53,134.486,65.53 M134.371,69.235h16.903v-0.55
	c0-0.638-0.231-0.955-0.694-0.955h-15.63c-0.387,0-0.579,0.317-0.579,0.955V69.235z M134.371,73.056h16.903v-1.736h-16.903V73.056z"
	/>
<path fill="#FFFFFF" d="M163.229,60.437h9.695c1.544,0,2.315,0.732,2.315,2.199v4.776c0,1.447-0.771,2.17-2.315,2.17h-9.695h-0.087
	c-0.116,1.776-0.367,3.455-0.752,5.037c-0.484,1.853-1.141,3.502-1.97,4.949c-0.309,0.212-0.606,0.318-0.897,0.318
	c-0.983-0.039-1.495-0.464-1.534-1.273c0-0.194,0.117-0.425,0.348-0.695c1.08-1.852,1.813-3.753,2.2-5.701
	c0.309-1.524,0.463-3.059,0.463-4.603v-4.979C161,61.169,161.742,60.437,163.229,60.437 M167.946,52.794
	c0.425,0,0.946,0.262,1.563,0.782c0.771,0.656,1.68,1.264,2.722,1.824c0.964,0.502,2.237,0.983,3.819,1.446
	c0.387,0.232,0.579,0.503,0.579,0.811c-0.058,0.811-0.443,1.235-1.157,1.274c-0.155,0-0.339-0.029-0.551-0.087
	c-0.732-0.271-1.37-0.513-1.91-0.724c0.019,0.077,0.029,0.154,0.029,0.231c0,0.693-0.348,1.042-1.042,1.042h-7.873
	c-0.693,0-1.042-0.349-1.042-1.042v-0.06c-0.888,0.445-1.882,0.86-2.98,1.245c-0.155,0.059-0.319,0.087-0.493,0.087
	c-0.656-0.039-1.003-0.424-1.042-1.157c0.02-0.387,0.212-0.685,0.579-0.897c1.679-0.559,3.106-1.148,4.285-1.766
	c1.194-0.617,2.304-1.437,3.327-2.46C167.146,52.979,167.541,52.794,167.946,52.794 M165.168,71.117h7.525
	c1.544,0,2.315,0.722,2.315,2.17v3.965c0,1.448-0.771,2.171-2.315,2.171h-7.525c-1.467,0-2.2-0.723-2.2-2.171v-3.965
	C162.968,71.839,163.701,71.117,165.168,71.117 M163.229,64.025h9.812V63.33c0-0.521-0.27-0.782-0.81-0.782h-8.336
	c-0.445,0-0.666,0.262-0.666,0.782V64.025z M172.231,67.498c0.54,0,0.81-0.27,0.81-0.81v-0.666h-9.812v0.666
	c0,0.54,0.221,0.81,0.666,0.81H172.231z M164.907,57.338h6.397c-0.984-0.559-1.931-1.215-2.837-1.967
	c-0.193-0.154-0.366-0.231-0.521-0.231c-0.134,0-0.26,0.048-0.376,0.145C166.721,56.057,165.834,56.741,164.907,57.338
	 M171.769,77.369c0.693,0,1.042-0.357,1.042-1.072v-2.084c0-0.693-0.349-1.042-1.042-1.042h-5.675c-0.616,0-0.926,0.349-0.926,1.042
	v2.084c0,0.715,0.31,1.072,0.926,1.072H171.769z M184.734,53.257c0.771,0,1.158,0.388,1.158,1.158v22.461
	c0,2.006-1.197,3.011-3.59,3.011c-1.1,0-2.566-0.271-4.399-0.811c-0.618-0.194-0.925-0.579-0.925-1.158
	c0.038-0.732,0.394-1.12,1.069-1.157c0.154,0,0.377,0.028,0.666,0.087c1.775,0.482,2.934,0.724,3.475,0.724
	c0.925,0,1.388-0.463,1.388-1.39V54.415C183.576,53.645,183.962,53.257,184.734,53.257 M179.293,55.227
	c0.771,0,1.157,0.386,1.157,1.157v16.44c0,0.772-0.386,1.158-1.157,1.158s-1.158-0.386-1.158-1.158v-16.44
	C178.135,55.612,178.521,55.227,179.293,55.227"/>
<path fill="#FFFFFF" d="M192.029,54.068h20.606c1.543,0,2.316,0.705,2.316,2.113V76.76c0,2.027-1.004,3.039-3.011,3.039
	c-1.543,0-3.358-0.201-5.442-0.606c-0.539-0.213-0.81-0.562-0.81-1.042c0-0.851,0.308-1.273,0.927-1.273
	c0.348,0,0.762,0.038,1.245,0.115c1.657,0.308,2.94,0.463,3.849,0.463c0.539,0,0.812-0.453,0.812-1.361V57.455
	c0-0.714-0.31-1.072-0.927-1.072h-18.641c-0.54,0-0.811,0.358-0.811,1.072v21.158c0,0.791-0.425,1.186-1.273,1.186
	c-0.772,0-1.158-0.395-1.158-1.186V56.182C189.712,54.773,190.484,54.068,192.029,54.068 M209.741,58.467
	c0.771,0,1.159,0.388,1.159,1.159s-0.388,1.157-1.159,1.157h-14.818c-0.772,0-1.158-0.386-1.158-1.157s0.386-1.159,1.158-1.159
	H209.741z M197.238,63.1h10.071c1.621,0,2.432,0.771,2.432,2.315v6.859c0,1.523-0.811,2.287-2.432,2.287h-10.071
	c-1.543,0-2.315-0.764-2.315-2.287v-6.859C194.923,63.871,195.695,63.1,197.238,63.1 M206.384,72.274
	c0.617,0,0.926-0.318,0.926-0.955V66.34c0-0.616-0.309-0.925-0.926-0.925h-8.221c-0.539,0-0.811,0.309-0.811,0.925v4.979
	c0,0.637,0.271,0.955,0.811,0.955H206.384z"/>
<path fill="#FFFFFF" d="M224.098,60.552c0.772,0,1.158,0.31,1.158,0.926c0,0.155-0.039,0.348-0.116,0.579
	c-0.54,1.409-1.195,2.663-1.968,3.764v13.372c0,0.771-0.386,1.156-1.158,1.156c-0.771,0-1.156-0.385-1.156-1.156V68.569
	c-0.406,0.387-0.83,0.772-1.274,1.157c-0.347,0.213-0.695,0.319-1.042,0.319c-0.772,0-1.158-0.386-1.158-1.158
	c0-0.135,0.077-0.367,0.232-0.694c1.157-0.907,2.18-1.91,3.067-3.011c0.945-1.157,1.736-2.499,2.373-4.022
	C223.153,60.755,223.5,60.552,224.098,60.552 M223.404,52.911c0.771,0,1.157,0.317,1.157,0.955c0,0.135-0.039,0.317-0.115,0.55
	c-0.54,1.544-1.217,2.894-2.027,4.052c-0.733,1.119-1.601,2.123-2.604,3.01c-0.309,0.232-0.617,0.348-0.927,0.348
	c-0.771,0-1.157-0.348-1.157-1.042c0-0.136,0.077-0.366,0.231-0.694c0.946-0.829,1.776-1.766,2.489-2.808
	c0.771-1.08,1.409-2.346,1.911-3.792C222.478,53.103,222.824,52.911,223.404,52.911 M244.736,60.898
	c0.753,0,1.129,0.387,1.129,1.158c0,0.772-0.376,1.158-1.129,1.158h-3.502v13.43c0,2.238-1.353,3.358-4.054,3.358
	c-1.523,0-3.568-0.31-6.136-0.927c-0.618-0.193-0.927-0.579-0.927-1.157c0.039-0.811,0.386-1.236,1.042-1.274
	c0.231,0,0.56,0.038,0.984,0.116c2.51,0.54,4.148,0.811,4.922,0.811c1.156,0,1.735-0.531,1.735-1.593V63.215h-11.229
	c-0.772,0-1.158-0.386-1.158-1.158c0-0.771,0.386-1.158,1.158-1.158H244.736z M242.97,53.953c0.771,0,1.158,0.396,1.158,1.187
	c0,0.771-0.387,1.157-1.158,1.157h-14.24c-0.772,0-1.157-0.386-1.157-1.157c0-0.791,0.385-1.187,1.157-1.187H242.97z"/>
<path fill="#FFFFFF" d="M148.512,47.045l-2.257-8.371l-2.286,8.371c-0.178,0.635-0.317,1.091-0.424,1.366
	c-0.104,0.276-0.287,0.524-0.547,0.742c-0.26,0.221-0.606,0.329-1.038,0.329c-0.349,0-0.636-0.064-0.862-0.194
	c-0.226-0.13-0.408-0.314-0.548-0.553s-0.254-0.521-0.343-0.848s-0.168-0.63-0.238-0.909l-2.323-9.401
	c-0.14-0.546-0.21-0.962-0.21-1.247c0-0.362,0.127-0.667,0.382-0.915c0.254-0.247,0.567-0.371,0.942-0.371
	c0.514,0,0.86,0.165,1.038,0.495c0.178,0.33,0.333,0.81,0.467,1.439l1.828,8.152l2.048-7.629c0.152-0.584,0.289-1.028,0.409-1.333
	c0.121-0.305,0.317-0.568,0.591-0.791c0.272-0.222,0.645-0.333,1.114-0.333c0.476,0,0.846,0.116,1.11,0.348
	c0.263,0.231,0.445,0.484,0.547,0.756c0.102,0.274,0.239,0.725,0.41,1.353l2.065,7.629l1.829-8.152c0.089-0.426,0.173-0.759,0.252-1
	c0.08-0.242,0.216-0.457,0.41-0.648c0.194-0.19,0.475-0.286,0.843-0.286s0.682,0.122,0.938,0.367
	c0.258,0.244,0.386,0.551,0.386,0.919c0,0.26-0.069,0.676-0.209,1.247l-2.324,9.401c-0.158,0.634-0.29,1.099-0.396,1.396
	c-0.104,0.295-0.282,0.554-0.533,0.774c-0.251,0.224-0.604,0.334-1.062,0.334c-0.432,0-0.778-0.107-1.037-0.323
	c-0.262-0.217-0.442-0.459-0.543-0.729C148.839,48.161,148.697,47.698,148.512,47.045"/>
<path fill="#FFFFFF" d="M163.512,44.836h-5.086c0.007,0.589,0.126,1.11,0.357,1.562s0.54,0.789,0.924,1.02
	c0.384,0.229,0.808,0.342,1.271,0.342c0.312,0,0.596-0.037,0.853-0.109s0.506-0.187,0.747-0.344c0.242-0.154,0.464-0.322,0.667-0.5
	c0.203-0.177,0.467-0.418,0.791-0.723c0.133-0.115,0.324-0.171,0.572-0.171c0.266,0,0.481,0.071,0.646,0.218
	c0.165,0.147,0.247,0.354,0.247,0.62c0,0.233-0.092,0.509-0.275,0.823c-0.185,0.314-0.462,0.615-0.834,0.904
	c-0.37,0.289-0.838,0.529-1.399,0.72c-0.563,0.189-1.208,0.286-1.938,0.286c-1.67,0-2.968-0.477-3.896-1.43
	c-0.926-0.951-1.391-2.244-1.391-3.875c0-0.769,0.115-1.481,0.345-2.139c0.228-0.658,0.561-1.221,1-1.691
	c0.437-0.469,0.977-0.83,1.618-1.081c0.641-0.25,1.352-0.376,2.133-0.376c1.016,0,1.888,0.215,2.614,0.643
	c0.727,0.428,1.271,0.983,1.635,1.662c0.36,0.68,0.542,1.372,0.542,2.075c0,0.654-0.188,1.078-0.563,1.272
	S164.192,44.836,163.512,44.836 M158.426,43.358h4.715c-0.063-0.889-0.304-1.553-0.719-1.994c-0.416-0.442-0.964-0.662-1.643-0.662
	c-0.648,0-1.181,0.223-1.596,0.672C158.768,41.821,158.515,42.483,158.426,43.358"/>
<path fill="#FFFFFF" d="M174.969,36.902l3.162,9.36l3.172-9.427c0.165-0.496,0.289-0.84,0.371-1.035
	c0.083-0.193,0.219-0.368,0.41-0.523c0.191-0.155,0.45-0.233,0.781-0.233c0.241,0,0.464,0.06,0.671,0.18
	c0.206,0.121,0.369,0.281,0.486,0.482c0.116,0.2,0.176,0.401,0.176,0.604c0,0.14-0.02,0.291-0.058,0.452
	c-0.037,0.162-0.086,0.322-0.143,0.477c-0.057,0.155-0.114,0.316-0.172,0.481l-3.38,9.124c-0.121,0.35-0.242,0.682-0.363,0.996
	c-0.12,0.313-0.26,0.59-0.419,0.828c-0.158,0.238-0.369,0.434-0.633,0.586s-0.585,0.229-0.966,0.229
	c-0.382,0-0.703-0.075-0.968-0.225c-0.264-0.148-0.477-0.346-0.638-0.59c-0.162-0.244-0.304-0.523-0.424-0.833
	c-0.121-0.312-0.241-0.642-0.362-0.991l-3.323-9.046c-0.058-0.166-0.115-0.328-0.177-0.487c-0.06-0.158-0.11-0.33-0.151-0.513
	c-0.041-0.185-0.063-0.34-0.063-0.467c0-0.325,0.13-0.619,0.391-0.886c0.261-0.267,0.588-0.4,0.98-0.4
	c0.483,0,0.825,0.147,1.024,0.443C174.555,35.783,174.76,36.255,174.969,36.902"/>
<path fill="#FFFFFF" d="M192.427,44.836h-5.086c0.006,0.589,0.125,1.11,0.357,1.562c0.231,0.451,0.539,0.789,0.924,1.02
	c0.384,0.229,0.808,0.342,1.271,0.342c0.311,0,0.595-0.037,0.852-0.109c0.258-0.072,0.507-0.187,0.748-0.344
	c0.242-0.154,0.463-0.322,0.667-0.5c0.203-0.177,0.467-0.418,0.79-0.723c0.134-0.115,0.325-0.171,0.572-0.171
	c0.266,0,0.481,0.071,0.646,0.218c0.165,0.147,0.248,0.354,0.248,0.62c0,0.233-0.092,0.509-0.276,0.823s-0.462,0.615-0.833,0.904
	c-0.372,0.289-0.838,0.529-1.4,0.72c-0.562,0.189-1.208,0.286-1.938,0.286c-1.67,0-2.969-0.477-3.896-1.43
	c-0.927-0.951-1.391-2.244-1.391-3.875c0-0.769,0.114-1.481,0.344-2.139c0.228-0.658,0.561-1.221,1-1.691
	c0.438-0.469,0.977-0.83,1.619-1.081c0.641-0.25,1.352-0.376,2.133-0.376c1.016,0,1.887,0.215,2.614,0.643
	c0.727,0.428,1.271,0.983,1.634,1.662c0.36,0.68,0.543,1.372,0.543,2.075c0,0.654-0.188,1.078-0.563,1.272
	C193.633,44.739,193.106,44.836,192.427,44.836 M187.341,43.358h4.714c-0.063-0.889-0.303-1.553-0.719-1.994
	c-0.416-0.442-0.964-0.662-1.642-0.662c-0.648,0-1.181,0.223-1.597,0.672C187.682,41.821,187.43,42.483,187.341,43.358"/>
<path fill="#FFFFFF" d="M199.122,40.35v0.314c0.457-0.603,0.957-1.045,1.5-1.328s1.166-0.423,1.871-0.423
	c0.687,0,1.299,0.148,1.838,0.447c0.54,0.299,0.943,0.72,1.21,1.266c0.171,0.318,0.282,0.661,0.333,1.029
	c0.052,0.368,0.076,0.839,0.076,1.41v4.838c0,0.521-0.119,0.914-0.356,1.18c-0.238,0.268-0.548,0.401-0.929,0.401
	c-0.388,0-0.702-0.137-0.942-0.41c-0.242-0.273-0.362-0.662-0.362-1.171v-4.333c0-0.857-0.119-1.513-0.357-1.967
	c-0.237-0.454-0.713-0.682-1.424-0.682c-0.464,0-0.886,0.139-1.267,0.415c-0.38,0.276-0.661,0.656-0.837,1.139
	c-0.128,0.388-0.192,1.111-0.192,2.172v3.257c0,0.526-0.122,0.922-0.366,1.186s-0.561,0.396-0.946,0.396
	c-0.375,0-0.684-0.137-0.925-0.41c-0.24-0.273-0.361-0.662-0.361-1.171v-7.515c0-0.495,0.107-0.865,0.323-1.109
	c0.217-0.244,0.511-0.366,0.886-0.366c0.229,0,0.435,0.053,0.62,0.161c0.183,0.108,0.331,0.27,0.441,0.486
	C199.066,39.775,199.122,40.039,199.122,40.35"/>
<path fill="#FFFFFF" d="M208.684,39.141h0.286v-1.562c0-0.419,0.011-0.748,0.033-0.986c0.022-0.238,0.084-0.443,0.186-0.614
	c0.102-0.178,0.248-0.322,0.438-0.434c0.19-0.111,0.404-0.167,0.638-0.167c0.33,0,0.629,0.124,0.896,0.372
	c0.177,0.165,0.29,0.367,0.337,0.605c0.048,0.238,0.072,0.576,0.072,1.015v1.771h0.952c0.368,0,0.648,0.087,0.844,0.262
	c0.192,0.175,0.29,0.398,0.29,0.671c0,0.349-0.139,0.593-0.414,0.733c-0.277,0.14-0.672,0.21-1.187,0.21h-0.485v4.781
	c0,0.406,0.014,0.719,0.043,0.938c0.028,0.219,0.104,0.396,0.228,0.533c0.124,0.137,0.325,0.205,0.606,0.205
	c0.151,0,0.357-0.027,0.618-0.081s0.464-0.081,0.609-0.081c0.209,0,0.399,0.084,0.567,0.253c0.168,0.168,0.252,0.376,0.252,0.623
	c0,0.42-0.229,0.739-0.687,0.962c-0.457,0.222-1.114,0.334-1.972,0.334c-0.813,0-1.427-0.137-1.847-0.41
	c-0.419-0.273-0.694-0.65-0.824-1.133c-0.129-0.482-0.195-1.127-0.195-1.934v-4.99h-0.343c-0.375,0-0.66-0.089-0.857-0.267
	c-0.195-0.177-0.295-0.403-0.295-0.676s0.104-0.496,0.311-0.671C207.991,39.228,208.29,39.141,208.684,39.141"/>
<path fill="#FFFFFF" d="M222.199,48.017v-0.333c-0.312,0.394-0.639,0.724-0.98,0.989c-0.344,0.268-0.719,0.466-1.124,0.596
	c-0.407,0.131-0.871,0.195-1.392,0.195c-0.628,0-1.19-0.131-1.69-0.391c-0.498-0.26-0.883-0.619-1.157-1.076
	c-0.323-0.552-0.485-1.346-0.485-2.381v-5.153c0-0.52,0.117-0.909,0.353-1.166c0.234-0.258,0.546-0.385,0.934-0.385
	c0.395,0,0.711,0.129,0.952,0.389c0.241,0.261,0.362,0.649,0.362,1.162v4.163c0,0.604,0.05,1.109,0.152,1.52
	c0.101,0.408,0.283,0.729,0.547,0.962c0.264,0.231,0.621,0.347,1.071,0.347c0.438,0,0.853-0.13,1.238-0.39
	c0.388-0.261,0.67-0.601,0.848-1.021c0.146-0.367,0.221-1.174,0.221-2.418v-3.163c0-0.513,0.119-0.901,0.36-1.162
	c0.241-0.26,0.557-0.389,0.943-0.389s0.699,0.127,0.933,0.385c0.235,0.257,0.354,0.646,0.354,1.166v7.534
	c0,0.496-0.113,0.867-0.338,1.114c-0.227,0.248-0.517,0.372-0.871,0.372c-0.357,0-0.65-0.129-0.881-0.386
	C222.314,48.841,222.199,48.48,222.199,48.017"/>
<path fill="#FFFFFF" d="M229.809,45.729v2.173c0,0.526-0.124,0.922-0.371,1.185c-0.248,0.265-0.563,0.396-0.942,0.396
	c-0.375,0-0.684-0.134-0.924-0.4c-0.241-0.267-0.362-0.66-0.362-1.181v-7.238c0-1.168,0.422-1.752,1.267-1.752
	c0.433,0,0.742,0.135,0.934,0.409c0.189,0.273,0.296,0.676,0.313,1.21c0.313-0.534,0.63-0.937,0.957-1.21
	c0.327-0.274,0.764-0.409,1.311-0.409c0.546,0,1.075,0.135,1.59,0.409c0.515,0.273,0.771,0.635,0.771,1.086
	c0,0.317-0.108,0.579-0.329,0.785c-0.219,0.207-0.455,0.309-0.709,0.309c-0.096,0-0.324-0.058-0.69-0.175
	c-0.365-0.117-0.688-0.177-0.966-0.177c-0.382,0-0.693,0.101-0.935,0.301c-0.241,0.199-0.429,0.496-0.561,0.889
	c-0.135,0.396-0.227,0.863-0.277,1.406S229.809,44.95,229.809,45.729"/>
<path fill="#FFFFFF" d="M242.542,44.836h-5.085c0.006,0.589,0.125,1.11,0.356,1.562c0.232,0.451,0.54,0.789,0.924,1.02
	c0.385,0.229,0.809,0.342,1.271,0.342c0.312,0,0.596-0.037,0.853-0.109s0.507-0.187,0.748-0.344c0.242-0.154,0.463-0.322,0.666-0.5
	c0.203-0.177,0.467-0.418,0.791-0.723c0.133-0.115,0.324-0.171,0.572-0.171c0.266,0,0.481,0.071,0.646,0.218
	c0.165,0.147,0.248,0.354,0.248,0.62c0,0.233-0.093,0.509-0.276,0.823c-0.185,0.314-0.462,0.615-0.833,0.904
	c-0.372,0.289-0.839,0.529-1.4,0.72c-0.562,0.189-1.208,0.286-1.938,0.286c-1.67,0-2.968-0.477-3.895-1.43
	c-0.927-0.951-1.391-2.244-1.391-3.875c0-0.769,0.114-1.481,0.344-2.139c0.228-0.658,0.561-1.221,1-1.691
	c0.437-0.469,0.977-0.83,1.618-1.081c0.641-0.25,1.353-0.376,2.134-0.376c1.015,0,1.887,0.215,2.613,0.643
	c0.728,0.428,1.271,0.983,1.635,1.662c0.36,0.68,0.543,1.372,0.543,2.075c0,0.654-0.188,1.078-0.563,1.272
	C243.749,44.739,243.223,44.836,242.542,44.836 M237.457,43.358h4.714c-0.063-0.889-0.303-1.553-0.719-1.994
	c-0.416-0.442-0.964-0.662-1.642-0.662c-0.649,0-1.181,0.223-1.597,0.672C237.798,41.821,237.546,42.483,237.457,43.358"/>
</svg>
